<?xml version="1.0" encoding="UTF-8" standalone="no"?>
<svg
   xmlns:dc="http://purl.org/dc/elements/1.1/"
   xmlns:cc="http://creativecommons.org/ns#"
   xmlns:rdf="http://www.w3.org/1999/02/22-rdf-syntax-ns#"
   xmlns:svg="http://www.w3.org/2000/svg"
   xmlns="http://www.w3.org/2000/svg"
   xmlns:sodipodi="http://sodipodi.sourceforge.net/DTD/sodipodi-0.dtd"
   xmlns:inkscape="http://www.inkscape.org/namespaces/inkscape"
   width="357.07446"
   height="352.10971"
   viewBox="0 0 357.07446 352.10971"
   version="1.1"
   preserveAspectRatio="xMidYMid"
   id="svg4336"
   inkscape:version="0.91 r13725"
   sodipodi:docname="logo.svg">
  <metadata
     id="metadata4358">
    <rdf:RDF>
      <cc:Work
         rdf:about="">
        <dc:format>image/svg+xml</dc:format>
        <dc:type
           rdf:resource="http://purl.org/dc/dcmitype/StillImage" />
        <dc:title></dc:title>
      </cc:Work>
    </rdf:RDF>
  </metadata>
  <defs
     id="defs4356" />
  <sodipodi:namedview
     pagecolor="#333333"
     bordercolor="#666666"
     borderopacity="1"
     objecttolerance="10"
     gridtolerance="10"
     guidetolerance="10"
     inkscape:pageopacity="0"
     inkscape:pageshadow="2"
     inkscape:window-width="1600"
     inkscape:window-height="845"
     id="namedview4354"
     showgrid="false"
     fit-margin-top="0"
     fit-margin-left="0"
     fit-margin-right="0"
     fit-margin-bottom="0"
     showguides="true"
     inkscape:zoom="5.3671875"
     inkscape:cx="130.6453"
     inkscape:cy="221.70426"
     inkscape:window-x="0"
     inkscape:window-y="27"
     inkscape:window-maximized="1"
     inkscape:current-layer="svg4336" />
  <polygon
     style="fill:#ffffff;opacity:0.4"
     id="polygon4342"
     points="202.33231,195.31107 256,248.97955 256,141.64339 "
     transform="matrix(0.70710678,0.70710678,-0.70710678,0.70710678,176.05513,-4.9647646)" />
  <path
     style="opacity:0.6;fill:#ffffff;fill-opacity:0.69019608;fill-rule:nonzero;stroke:none;stroke-width:2;stroke-linecap:butt;stroke-linejoin:miter;stroke-miterlimit:4;stroke-dasharray:none;stroke-dashoffset:0;stroke-opacity:1"
     d="M 160.9668 21.074219 L 116.29102 65.404297 L 116.29102 161.03125 L 161.29102 161.16211 L 160.9668 21.074219 z M 126.73047 86.736328 L 150.85156 86.736328 C 151.62531 86.736328 152.24609 87.332782 152.24609 88.064453 C 152.24609 88.333582 152.16053 88.586615 152.01758 88.796875 L 151.82617 89.013672 L 140.39648 102.15039 C 140.00962 102.58772 139.42885 102.875 138.78125 102.875 C 138.13367 102.875 137.55483 102.59614 137.16797 102.15039 L 125.72852 88.990234 L 125.57812 88.814453 C 125.42668 88.604193 125.33398 88.341993 125.33398 88.064453 C 125.33398 87.332783 125.95675 86.736328 126.73047 86.736328 z "
     id="path9079" />
  <path
     style="opacity:0.6;fill:#ffffff;fill-opacity:1;fill-rule:nonzero;stroke:none;stroke-width:2;stroke-linecap:butt;stroke-linejoin:miter;stroke-miterlimit:4;stroke-dasharray:none;stroke-dashoffset:0;stroke-opacity:1"
     d="M 66.166016 116.24414 L 19.996094 161.24414 L 161.19531 161.24414 L 161.19531 116.24414 L 66.166016 116.24414 z M 85.482422 125.28711 C 85.751555 125.28711 86.00264 125.37268 86.212891 125.51562 L 86.431641 125.70898 L 99.568359 137.13672 C 100.00569 137.52358 100.29102 138.10631 100.29102 138.75391 C 100.29102 139.40149 100.01411 139.98033 99.568359 140.36719 L 86.408203 151.80469 L 86.230469 151.95703 C 86.02021 152.10848 85.759962 152.20117 85.482422 152.20117 C 84.750752 152.20117 84.154297 151.57841 84.154297 150.80469 L 84.154297 126.68359 C 84.154297 125.90984 84.750752 125.28711 85.482422 125.28711 z "
     id="path9083" />
  <path
     style="fill:#ffffff"
     d="M 171.08984 0 L 0 171.08984 L 171.08984 171.08984 L 171.08984 0 z M 161.08984 24.140625 L 161.08984 161.08984 C 115.4401 161.09084 69.790365 161.09115 24.140625 161.0918 C 69.790365 115.44141 115.4401 69.791056 161.08984 24.140625 z "
     id="polygon4344" />
  <path
     style="fill:#ffffff;opacity:0.4"
     d="m 276.60156,95.580078 0,160.947262 80.47266,-80.47265 -80.47266,-80.474612 z"
     id="path8981" />
  <path
     style="fill:#ffffff"
     d="M 181.01953 181.01758 L 181.01953 266.27734 L 266.66992 266.27734 L 266.66992 181.01758 L 181.01953 181.01758 z M 190.54883 190.50195 L 257.14062 190.50195 L 257.14062 256.79297 L 190.54883 256.79297 L 190.54883 190.50195 z "
     id="polygon4348" />
  <polygon
     style="fill:#ffffff;opacity:0.4"
     id="polygon4350"
     points="183.87534,55.725677 128.14966,0 7.0212374,0 62.746123,55.725677 "
     transform="matrix(0.70710678,0.70710678,-0.70710678,0.70710678,176.05513,-4.9647646)" />
  <polygon
     style="fill:#ffffff;opacity:0.4"
     id="polygon4352"
     points="128,120.97876 183.32184,65.656132 72.677369,65.656132 "
     transform="matrix(0.70710678,0.70710678,-0.70710678,0.70710678,176.05513,-4.9647646)" />
  <path
     inkscape:connector-curvature="0"
     d="m 245.9644,207.89842 -5.90791,-4.65961 c -0.18294,-0.15065 -0.40892,-0.25827 -0.66719,-0.25827 -0.25827,0 -0.49502,0.10762 -0.67796,0.26903 l -21.49015,27.61328 c 0,0 -8.44755,-8.12471 -8.6843,-8.36146 -0.23675,-0.23675 -0.54882,-0.63491 -1.02232,-0.63491 -0.47349,0 -0.68871,0.3336 -0.93622,0.5811 -0.18294,0.19371 -3.19608,3.3575 -4.68113,4.92864 -0.0861,0.0968 -0.1399,0.15066 -0.21523,0.22599 -0.12913,0.18294 -0.21522,0.3874 -0.21522,0.61339 0,0.23674 0.0861,0.43044 0.21522,0.61339 l 0.30132,0.27979 c 0,0 14.99038,14.3985 15.23788,14.64601 0.24751,0.24751 0.54882,0.55959 0.99003,0.55959 0.43045,0 0.78557,-0.46274 0.99003,-0.6672 l 26.80619,-34.43589 c 0.12914,-0.18294 0.21523,-0.38741 0.21523,-0.62415 0,-0.26903 -0.10761,-0.49502 -0.25827,-0.68872 z"
     id="path4446"
     style="fill:#ffffff;fill-opacity:1" />
  <path
     style="fill:#ffffff;opacity:0.4"
     d="m 8.3e-6,181.01758 171.0898317,171.08984 0,-171.08984 -171.0898317,0 z"
     id="path8975"
     inkscape:connector-curvature="0" />
</svg>
