<svg xmlns="http://www.w3.org/2000/svg" width="334.105" height="323.141" viewBox="0 0 334.105 323.141" preserveAspectRatio="xMidYMid">
  <path d="M172.535 323.14c18.472-18.47 36.943-36.942 55.414-55.413h-55.415v55.414z" opacity=".4" fill="#fff"/>
  <path d="M150.605 0L0 150.605h150.605V0zm-16 38.625v95.98h-95.98l95.98-95.98z" fill="#fff"/>
  <path d="M268.117 227.56l65.988-65.99-65.988-65.99v131.98z" opacity=".4" fill="#fff"/>
  <path d="M172.535 172.533v73.26h73.65v-73.26h-73.65zm14 14h45.65v45.26h-45.65v-45.26z" fill="#fff"/>
  <path d="M172.533 61.838l73.653 73.652c0-20.612 0-41.225.002-61.838L172.535 0c0 20.613 0 41.225-.002 61.838zM172.535 150.605h57.754l-57.755-57.753v57.753zM150.605 323.14V172.532H0L150.605 323.14z" opacity=".4" fill="#fff"/>
</svg>
