<svg xmlns="http://www.w3.org/2000/svg" width="349.418" height="342.454" viewBox="0 0 349.418 342.454" preserveAspectRatio="xMidYMid">
  <path d="M178.192 273.383v69.07l69.07-69.07h-69.07z" opacity=".4" fill="#fff"/>
  <path d="M154.14 14.246l-44.677 44.33v99.627l45 .13zM119.9 83.908h24.12c.775 0 1.396.597 1.396 1.328 0 .27-.086.522-.23.733l-.19.215-11.43 13.136c-.387.44-.967.726-1.615.726-.646 0-1.225-.28-1.612-.725l-11.44-13.16-.15-.175c-.15-.21-.244-.472-.244-.75 0-.73.623-1.328 1.396-1.328z" opacity=".6" fill="#fff" fill-opacity=".69"/>
  <path d="M57.338 109.416l-44.17 45h145.2v-45zm25.316 9.043c.27 0 .52.084.73.227l.22.193 13.136 11.43c.438.385.723.968.723 1.616 0 .647-.277 1.226-.723 1.613l-13.16 11.436-.178.152c-.21.15-.47.243-.748.243-.73 0-1.328-.622-1.328-1.395v-24.122c0-.773.597-1.396 1.328-1.396z" opacity=".6" fill="#fff"/>
  <path d="M164.262 0L0 164.262h164.262V0zm-10 24.143v130.12H24.142l130.12-130.12z" fill="#fff"/>
  <path d="M273.773 246.87l75.645-75.643-75.645-75.647v151.29z" opacity=".4" fill="#fff"/>
  <path d="M178.19 178.19v81.26h81.652v-81.26h-81.65zm9.53 9.484h62.592v62.29h-62.59v-62.29z" fill="#fff"/>
  <path d="M178.19 73.15l81.652 81.653v-73.15L178.192 0v73.15zm.002 91.112h71.41l-71.41-71.41v71.41z" opacity=".4" fill="#fff"/>
  <path d="M236.906 206.082l-4.778-3.768c-.148-.122-.33-.21-.54-.21-.208 0-.4.088-.548.218l-17.38 22.333s-6.832-6.57-7.024-6.763c-.19-.19-.444-.513-.827-.513-.384 0-.56.27-.76.47-.147.155-2.584 2.713-3.785 3.984-.07.078-.113.122-.174.183-.103.148-.173.313-.173.496 0 .19.07.348.174.496l.245.225s12.124 11.645 12.324 11.845c.2.2.443.454.8.454.35 0 .635-.374.8-.54l21.68-27.85c.104-.148.174-.313.174-.505 0-.22-.087-.4-.21-.56z" fill="#fff"/>
  <path d="M164.262 342.45V178.19H0l164.262 164.26z" opacity=".4" fill="#fff"/>
</svg>
